<svg  viewBox="0 0 1671 712" fill="none" xmlns="http://www.w3.org/2000/svg">
<path fill-rule="evenodd" clip-rule="evenodd" d="M871 0H981L1169.68 170H1171L1263.58 253.417L1665 114.546V225.546L1561.06 260.98L1671 360V465L1476.78 289.711L1351.33 332.478L1373 352H1294.07L1121.1 410.966L1306.31 584.415L1486 525L1643 668L1638 712L1481 569L1337.85 613.952L1371 645H1261L1040.02 438.607L627.999 579.069L699 642.5H588.5L548.712 606.098L477 630.546L133 644.546L374.438 561.019L243 443L36 508L0 481L248 399L411.811 548.09L725.047 439.725L389 130H499L593.143 216.769L831 140.5L869 173L779 203.502L798.5 218.5L770 229L749.5 213.5L632.587 253.123L805.027 412.056L1184.1 280.914L1074.32 182H1073L871 0ZM153 315L323 249L278.419 206.857L323.5 193.5L296 172L253.794 183.579L191.826 125L175.648 107.5L153 83V135L263 240L153 280V315Z" fill="white" fill-opacity="0.25"/>
</svg>
